<?xml version="1.0" standalone="no"?>
<!DOCTYPE svg PUBLIC "-//W3C//DTD SVG 20010904//EN"
 "http://www.w3.org/TR/2001/REC-SVG-20010904/DTD/svg10.dtd">
<svg version="1.0" xmlns="http://www.w3.org/2000/svg"
 width="1000.000000pt" height="1000.000000pt" viewBox="0 0 1000.000000 1000.000000"
 preserveAspectRatio="xMidYMid meet">
<metadata>
Created by potrace 1.14, written by Peter Selinger 2001-2017
</metadata>
<g transform="translate(0.000000,1000.000000) scale(0.100000,-0.100000)"
fill="#000000" stroke="none">
<path d="M4635 9650 c-206 -7 -322 -21 -381 -46 -18 -8 -55 -14 -81 -14 -26 0
-66 -7 -88 -15 -22 -8 -54 -14 -71 -15 -18 0 -45 -7 -60 -15 -16 -8 -51 -15
-78 -15 -45 0 -108 -16 -181 -45 -72 -30 -103 -38 -150 -43 -33 -3 -59 -12
-78 -28 -16 -13 -39 -24 -51 -24 -13 0 -35 -9 -49 -20 -14 -11 -36 -20 -49
-20 -27 0 -103 -33 -112 -49 -4 -6 -17 -11 -29 -11 -12 0 -31 -7 -41 -15 -11
-8 -30 -15 -42 -15 -12 0 -27 -6 -33 -14 -7 -8 -26 -18 -42 -21 -16 -4 -29
-11 -29 -16 0 -5 -8 -9 -17 -9 -10 0 -47 -14 -81 -30 -35 -17 -70 -30 -78 -30
-7 0 -24 -14 -36 -31 -13 -17 -47 -42 -75 -56 -29 -13 -55 -28 -58 -34 -4 -5
-14 -9 -24 -9 -9 0 -30 -13 -46 -30 -16 -16 -35 -30 -43 -30 -8 0 -34 -13 -59
-30 -24 -16 -47 -30 -52 -30 -4 0 -17 -13 -29 -30 -13 -16 -29 -30 -36 -30
-19 0 -57 -21 -82 -45 -12 -11 -34 -29 -49 -40 -72 -52 -94 -70 -164 -138 -42
-41 -93 -82 -113 -91 -21 -10 -40 -26 -43 -37 -4 -10 -11 -19 -17 -19 -18 0
-88 -61 -104 -91 -8 -16 -20 -29 -28 -29 -7 0 -34 -27 -61 -60 -26 -33 -56
-62 -67 -65 -10 -4 -28 -25 -39 -48 -12 -23 -28 -46 -35 -50 -8 -4 -14 -13
-14 -19 0 -17 -102 -122 -125 -128 -14 -4 -22 -17 -25 -42 -3 -24 -15 -44 -36
-62 -18 -14 -35 -37 -38 -51 -4 -14 -10 -25 -15 -25 -5 0 -26 -26 -47 -57 -21
-32 -43 -62 -50 -68 -10 -9 -36 -56 -73 -136 -7 -14 -28 -43 -47 -64 -19 -21
-34 -45 -34 -52 0 -11 -50 -118 -116 -245 -12 -22 -28 -45 -38 -50 -9 -5 -16
-19 -16 -30 0 -12 -7 -29 -15 -38 -9 -10 -20 -46 -26 -81 -7 -42 -20 -76 -38
-99 -29 -37 -42 -74 -66 -184 -9 -38 -29 -97 -45 -130 -16 -34 -31 -84 -34
-111 -6 -69 -16 -95 -33 -95 -12 0 -14 -8 -10 -38 4 -21 0 -61 -8 -92 -8 -30
-15 -71 -15 -91 0 -20 -7 -50 -15 -65 -8 -16 -15 -50 -15 -75 0 -26 -7 -66
-15 -89 -13 -36 -15 -123 -15 -544 0 -298 5 -529 11 -571 6 -38 14 -96 19
-128 5 -32 14 -64 20 -72 6 -7 15 -44 20 -82 16 -116 27 -166 53 -238 14 -38
28 -95 31 -126 4 -34 18 -80 36 -114 16 -31 30 -64 30 -74 0 -9 7 -25 15 -35
8 -11 15 -28 15 -38 0 -11 14 -43 30 -73 17 -30 30 -62 30 -72 0 -10 7 -27 15
-37 8 -11 15 -28 15 -38 0 -9 13 -33 30 -51 16 -19 30 -44 30 -55 0 -11 7 -25
15 -32 8 -7 15 -23 15 -36 0 -12 4 -26 10 -29 5 -3 12 -28 16 -56 5 -34 13
-53 25 -60 11 -5 19 -15 19 -21 0 -12 45 -82 68 -106 6 -7 12 -19 12 -26 0 -7
9 -21 20 -31 11 -10 20 -22 20 -28 0 -5 20 -40 45 -77 25 -37 45 -74 45 -82 0
-8 15 -31 33 -51 17 -19 52 -58 76 -87 l44 -51 -5 -73 c-3 -40 -12 -86 -21
-102 -22 -39 -47 -119 -47 -149 0 -13 -4 -27 -10 -30 -12 -7 -50 -92 -50 -111
0 -8 -4 -14 -9 -14 -4 0 -20 -26 -34 -58 -15 -32 -44 -91 -67 -131 -22 -41
-40 -82 -40 -91 0 -10 -7 -23 -15 -30 -8 -7 -15 -21 -15 -31 0 -10 -5 -21 -11
-24 -5 -4 -15 -17 -20 -28 -15 -32 -34 -65 -50 -84 -8 -10 -22 -34 -32 -53
-25 -51 -38 -70 -80 -118 -22 -24 -50 -68 -64 -98 -13 -29 -29 -56 -34 -59 -5
-4 -9 -12 -9 -20 0 -8 -16 -31 -36 -52 -19 -21 -46 -54 -58 -73 -13 -19 -40
-51 -60 -70 -19 -19 -36 -44 -36 -56 0 -11 -8 -29 -19 -40 -24 -27 -32 -83
-37 -284 -4 -128 -2 -174 10 -205 8 -22 17 -53 20 -68 4 -16 17 -32 31 -39 14
-6 25 -17 25 -23 0 -7 9 -20 20 -30 11 -10 20 -23 20 -30 0 -34 126 -114 200
-126 25 -4 71 -13 102 -20 49 -11 72 -11 165 4 59 10 144 17 188 17 51 1 89 6
105 15 15 8 53 14 91 15 37 0 86 7 109 15 23 8 59 15 79 15 20 0 45 7 55 15
11 8 34 15 51 15 39 0 135 28 155 45 8 7 42 15 74 19 41 4 70 15 92 31 18 14
42 25 53 25 12 0 65 20 118 45 53 25 103 45 112 45 9 0 25 6 36 14 11 7 31 17
45 21 14 4 38 17 55 29 39 28 65 43 95 56 37 16 42 19 75 39 17 11 36 20 43
20 15 1 85 50 141 98 23 20 54 35 80 39 24 4 45 13 48 21 4 10 14 12 34 8 27
-6 29 -4 29 22 0 43 15 58 85 92 11 5 38 28 60 50 21 23 43 41 48 41 5 0 26
14 47 30 51 40 102 40 187 0 34 -17 76 -30 92 -30 16 0 59 -13 97 -29 76 -32
199 -61 254 -61 20 0 46 -7 59 -16 39 -28 122 -44 226 -44 72 -1 105 -5 119
-15 12 -9 42 -15 78 -15 33 0 119 -7 192 -15 211 -25 935 -8 991 22 12 6 66
16 120 23 55 6 114 15 130 19 57 17 130 34 178 41 26 3 53 12 59 18 7 7 24 12
39 12 15 0 40 6 56 14 37 19 134 46 162 46 13 0 35 6 49 14 35 17 87 35 137
47 56 13 185 60 190 70 3 4 29 5 58 2 52 -5 53 -5 77 32 23 33 102 85 131 85
7 0 27 11 45 25 18 14 36 25 41 25 5 0 16 9 26 20 9 11 23 20 31 20 7 0 19 7
26 15 7 8 23 15 35 15 13 0 25 4 27 8 2 5 28 21 58 35 68 34 81 41 152 94 31
24 60 43 63 43 4 0 27 14 52 30 24 17 47 30 52 30 4 0 18 11 31 25 13 13 42
34 64 46 23 11 50 29 61 38 11 10 28 21 38 24 9 4 20 15 24 24 7 19 36 48 112
111 83 69 125 107 164 149 21 23 47 45 57 48 10 3 41 36 70 73 28 37 60 70 71
74 11 4 23 18 29 32 5 13 21 32 36 43 44 30 92 82 120 132 15 25 42 61 60 80
19 19 34 41 34 50 0 19 107 121 126 121 8 0 14 3 15 8 0 4 1 26 3 50 1 28 10
49 24 62 12 12 22 25 22 30 0 5 8 17 19 27 10 10 38 55 61 100 24 46 51 85 61
88 12 4 19 16 19 30 0 14 9 29 20 35 14 7 19 17 15 29 -3 11 3 25 15 36 11 10
20 26 20 36 0 30 42 119 56 119 17 0 51 77 63 145 7 35 21 69 40 93 16 20 35
60 41 87 7 28 15 59 19 70 5 11 16 49 25 85 9 36 21 83 27 105 5 21 15 45 20
51 9 11 18 51 35 149 17 98 26 135 35 135 5 0 9 15 9 33 0 17 5 48 10 67 6 19
15 69 20 110 5 41 14 107 19 145 34 230 41 415 29 800 -5 177 -10 230 -20 234
-22 7 -28 24 -28 86 0 66 -25 222 -42 270 -16 43 -22 155 -9 168 16 16 13 47
-4 53 -8 4 -15 17 -15 30 0 19 -5 24 -24 24 -20 0 -25 6 -30 45 -4 24 -11 47
-16 50 -5 3 -12 26 -16 50 -3 25 -10 45 -14 45 -4 0 -17 33 -29 73 -12 39 -28
85 -36 100 -8 16 -15 39 -15 52 0 13 -13 44 -30 68 -16 25 -30 51 -30 59 0 8
-7 23 -15 34 -8 10 -15 29 -15 41 0 12 -6 26 -13 30 -17 10 -47 70 -47 94 0
10 -10 30 -22 46 -41 50 -65 88 -72 111 -4 12 -12 22 -17 22 -5 0 -9 10 -9 23
-1 12 -14 38 -30 57 -17 19 -30 42 -30 52 0 9 -13 32 -29 50 -15 18 -31 43
-35 55 -4 11 -13 27 -21 33 -8 7 -15 19 -15 28 0 8 -20 34 -45 58 -25 23 -45
51 -45 61 0 10 -27 47 -60 82 -33 35 -60 65 -60 68 0 26 -447 503 -472 503 -6
0 -25 15 -43 33 -18 17 -43 39 -55 47 -13 8 -37 30 -54 49 -17 18 -72 64 -122
102 -50 38 -99 78 -109 89 -10 11 -26 20 -36 20 -10 0 -22 6 -26 13 -10 17
-109 90 -150 111 -17 9 -34 25 -38 36 -3 11 -13 20 -21 20 -8 0 -47 16 -87 36
-109 54 -129 65 -164 92 -44 33 -103 62 -126 62 -10 0 -44 18 -76 40 -31 22
-66 40 -77 40 -10 0 -36 9 -57 20 -20 11 -48 20 -61 20 -13 0 -38 7 -55 15
-17 8 -45 22 -62 30 -17 8 -40 15 -52 15 -12 1 -33 7 -47 15 -14 8 -34 14 -46
15 -11 0 -29 9 -39 20 -10 11 -26 20 -36 20 -24 0 -107 19 -139 33 -82 33
-128 47 -155 47 -16 1 -41 7 -55 15 -14 8 -41 14 -61 15 -20 0 -56 7 -79 15
-23 8 -72 15 -109 15 -36 1 -84 7 -106 15 -22 8 -59 15 -82 15 -23 0 -73 7
-110 14 -85 18 -585 27 -878 16z"/>
</g>
</svg>
