<?xml version="1.0" standalone="no"?>
<!DOCTYPE svg PUBLIC "-//W3C//DTD SVG 20010904//EN"
 "http://www.w3.org/TR/2001/REC-SVG-20010904/DTD/svg10.dtd">
<svg version="1.0" xmlns="http://www.w3.org/2000/svg"
 width="980.000000pt" height="980.000000pt" viewBox="0 0 980.000000 980.000000"
 preserveAspectRatio="xMidYMid meet">
<metadata>
Created by potrace 1.11, written by Peter Selinger 2001-2013
</metadata>
<g transform="translate(0.000000,980.000000) scale(0.100000,-0.100000)"
fill="#000000" stroke="none">
<path d="M2125 9785 c-353 -65 -663 -283 -846 -596 -49 -85 -93 -195 -127
-318 l-27 -96 -3 -3835 c-2 -3422 -1 -3845 13 -3925 88 -505 492 -913 993
-1000 111 -20 326 -19 438 0 243 43 468 160 644 335 177 175 289 381 347 640
15 68 17 218 20 1644 l4 1568 27 -40 c43 -64 2920 -3450 2986 -3515 177 -173
414 -292 661 -333 120 -19 341 -15 453 10 242 53 438 160 613 335 240 241 359
530 359 875 0 273 -84 526 -245 736 -24 30 -534 633 -1134 1340 -600 707
-1091 1287 -1091 1290 0 3 493 586 1096 1295 603 710 1119 1319 1145 1355 98
130 183 333 214 508 19 112 19 315 0 428 -103 586 -613 1014 -1209 1014 -343
0 -648 -130 -887 -376 -77 -80 -2880 -3375 -2947 -3466 l-37 -49 -6 1558 -5
1558 -22 97 c-29 128 -64 223 -119 329 -173 330 -500 570 -867 634 -107 18
-341 19 -441 0z"/>
</g>
</svg>
