<svg version="1" xmlns="http://www.w3.org/2000/svg" width="682.667" height="682.667" viewBox="0 0 512.000000 512.000000"><path d="M132.2 45c-17.8 4.7-31.3 17.2-37.4 34.8l-2.3 6.7v340l2.3 6.8c6.4 18.5 21.3 31.4 40.9 35.4 24.4 5.1 49.5-9.2 59.6-33.8 2.2-5.4 2.2-5.7 2.5-76.7.1-39.3.6-71.2 1.1-71 .4.2 11.1 12.4 23.6 27.3 78.9 93.1 102.3 120.5 106.4 124.9 10.2 10.8 23.2 16.6 37.6 16.8 10.1.2 17.1-1.5 26-6.1 13.5-7 22.8-18.9 26.7-34.3 3.5-14.1.9-29.5-7.1-41.3-2-2.9-24.9-30.4-51-61.1-26.1-30.7-47.4-56.3-47.4-56.9 0-.6 21.3-26.2 47.4-56.9 26.1-30.7 49-58.2 51.1-61.1 5.8-8.6 8.3-17.2 8.3-29 0-7.8-.5-11.5-2.4-16.8-4.5-13.3-13.4-23.4-26.1-30.1-8.4-4.3-15.5-6-25.5-5.9-14.3.2-27.4 6.1-37.6 16.9-4.3 4.6-119.9 140.5-126.4 148.6-1.7 2.1-3.3 3.8-3.7 3.8-.5 0-.8-31-.8-68.8 0-58.6-.2-69.7-1.5-74.7-4.8-18.2-21.6-34.1-40.2-38-9-1.9-15.3-1.8-24.1.5z"/></svg>